<?xml version="1.0" encoding="UTF-8" standalone="no"?>
<!DOCTYPE svg PUBLIC "-//W3C//DTD SVG 1.1//EN" "http://www.w3.org/Graphics/SVG/1.1/DTD/svg11.dtd">
<svg width="100%" height="100%" viewBox="0 0 2000 2000" version="1.1" xmlns="http://www.w3.org/2000/svg" xmlns:xlink="http://www.w3.org/1999/xlink" xml:space="preserve" xmlns:serif="http://www.serif.com/" style="fill-rule:evenodd;clip-rule:evenodd;stroke-linejoin:round;stroke-miterlimit:2;">
    <g transform="matrix(0.730058,0,-0,0.730058,380.870156,291.020059)">
        <path d="M1115.678,55.756C1114.424,51.788 1116.04,48.673 1116.322,48.129C1116.906,47.004 1117.719,45.967 1118.693,45.156C1119.125,44.796 1119.561,44.434 1124.986,42.033C1131.981,38.938 1187.675,15.811 1218.094,-34.395C1236.529,-64.823 1239.486,-95.624 1226.952,-117.928C1223.812,-123.516 1207.61,-157.283 1132.633,-164.762C1095.306,-168.485 1060.208,-163.86 1054.574,-163.255C1002.74,-157.69 971.129,-142.365 958.135,-136.377C918.835,-118.268 894.494,-95.057 884.21,-85.643C840.75,-45.864 812.968,2.813 795.857,35.987C765.382,95.071 744.261,159.425 727.914,220.173C707.508,296.004 694.812,369.176 685.474,430.186C660.2,595.303 649.476,773.629 643.36,918.69C642.102,948.524 639.816,1002.857 636.823,1128.804C636.037,1161.862 635.202,1195.961 633.331,1329.874C632.353,1399.884 631.922,1456.949 631.888,1458.971L630.143,1563.454C630.135,1563.92 629.256,1595.979 627.581,1662.407C627.216,1676.913 627.158,1676.908 624.177,1760.037C623.814,1770.184 619.713,1884.534 619.6,1886.866C616.436,1952.419 611.95,2044.61 606.619,2143.756C606.557,2144.906 605.876,2157.567 605.811,2158.129C605.539,2160.46 605.491,2162.829 604.993,2165.123C604.544,2167.19 601.982,2178.99 590.133,2186.994C584.364,2190.89 578.811,2192.019 577.757,2192.234C575.619,2192.669 563.292,2195.175 551.001,2186.904C539.028,2178.845 536.913,2167.034 536.543,2164.965C535.808,2160.858 535.345,2134.559 521.539,1887.239C521.347,1883.813 512.896,1693.598 512.148,1676.76C511.804,1669.013 511.749,1667.776 508.956,1579.882C508.301,1559.274 508.351,1559.279 507.946,1538.671C507.351,1508.361 506.487,1461.918 506.448,1456.86C506.345,1443.573 505.691,1359.259 505.675,1290.767C505.674,1285.247 505.937,1158.82 507.854,1069.001C508.207,1052.468 510.318,953.55 514.517,862.402C522.533,688.391 535.314,573.228 535.966,567.006C549.436,438.436 564.038,361.73 567.869,341.362C591.281,216.882 615.949,143.446 626.529,113.096C651.201,42.32 675.285,-4.923 691.843,-34.281C701.235,-50.935 711.781,-66.899 713.613,-69.673C746.62,-119.639 779.584,-153.706 808.029,-177.601C808.328,-177.853 819.905,-187.518 835.98,-198.432C868.65,-220.615 898.047,-233.391 919.06,-241.041C920.061,-241.405 931.768,-245.559 947.457,-249.61C989.835,-260.554 1027.009,-262.229 1052.052,-262.019C1052.337,-262.016 1063.748,-261.858 1079.524,-260.527C1216.505,-248.966 1270.64,-190.55 1286.738,-143.184C1293.075,-124.541 1292.964,-107.111 1292.944,-103.931C1292.497,-33.431 1231.538,37.585 1131.457,61.495C1126.076,62.781 1124.805,62.661 1124.221,62.606C1123.625,62.549 1120.183,62.224 1117.579,59.159C1117.377,58.922 1116.265,57.613 1115.678,55.756Z" style="fill:white;"/>
    </g>
    <g transform="matrix(1,0,0,1,303.175878,0)">
        <path d="M923.847,364.112C835.696,727.412 821.543,1334.414 821.543,1334.414C821.543,1334.414 578.11,1383.185 477.682,1547.834C476.673,824.997 496.034,131.148 862.986,135.51C1030.356,137.5 1030.776,257.563 937.326,312.631C936.252,316.423 935.188,320.251 934.134,324.114C884.344,347.774 842.124,349.501 833.96,349.857C830.401,350.012 829.621,350.29 829.265,350.417C828.18,350.803 827.162,351.433 826.311,352.211C825.9,352.586 823.545,354.738 823.373,358.519C823.36,358.802 823.293,360.289 823.929,362.019C825.192,365.449 828.027,366.805 828.518,367.039C829.043,367.29 830.131,367.81 835.663,368.381C867.222,371.639 896.92,369.905 923.847,364.112Z" style="fill:white;"/>
    </g>
</svg>
